<svg width="78" height="60" viewBox="0 0 78 60" fill="none" xmlns="http://www.w3.org/2000/svg">
<rect width="6" height="6" fill="white"/>
<rect y="18" width="6" height="6" fill="white"/>
<rect y="36" width="6" height="6" fill="white"/>
<rect y="54" width="6" height="6" fill="white"/>
<rect x="18" width="6" height="6" fill="white"/>
<rect x="18" y="18" width="6" height="6" fill="white"/>
<rect x="18" y="36" width="6" height="6" fill="white"/>
<rect x="18" y="54" width="6" height="6" fill="white"/>
<rect x="36" width="6" height="6" fill="white"/>
<rect x="36" y="18" width="6" height="6" fill="white"/>
<rect x="36" y="36" width="6" height="6" fill="white"/>
<rect x="36" y="54" width="6" height="6" fill="white"/>
<rect x="54" width="6" height="6" fill="white"/>
<rect x="54" y="18" width="6" height="6" fill="white"/>
<rect x="54" y="36" width="6" height="6" fill="white"/>
<rect x="54" y="54" width="6" height="6" fill="white"/>
<rect x="72" width="6" height="6" fill="white"/>
<rect x="72" y="18" width="6" height="6" fill="white"/>
<rect x="72" y="36" width="6" height="6" fill="white"/>
<rect x="72" y="54" width="6" height="6" fill="white"/>
</svg>
